<?xml version="1.0" encoding="utf-8"?>
<!-- Generator: Adobe Illustrator 22.0.0, SVG Export Plug-In . SVG Version: 6.00 Build 0)  -->
<svg version="1.1" id="Ebene_1" xmlns="http://www.w3.org/2000/svg" xmlns:xlink="http://www.w3.org/1999/xlink" x="0px" y="0px"
	 viewBox="0 0 4000 4000" style="enable-background:new 0 0 4000 4000;" xml:space="preserve">
<style type="text/css">
	.st0{fill:#FFBF00;stroke:#142E4D;stroke-miterlimit:10;}
	.st1{fill:#FDFEFF;}
	.st2{fill:#142E4D;}
	.st3{font-family:'Raleway-Medium';}
	.st4{font-size:126.8659px;}
	.st5{letter-spacing:-1;}
	.st6{fill:#B9D6F2;}
	.st7{fill:#FFBF00;}
	.st8{font-family:'Raleway-Bold';}
	.st9{font-size:336.07px;}
	.st10{fill:none;stroke:#121111;stroke-miterlimit:10;}
</style>
<title>4Zeichenfläche 1</title>
<path class="st0" d="M1872.3,3600C928.7,2232.1,753.6,2091.7,753.6,1589c0-688.6,558.2-1246.8,1246.8-1246.8
	S3247.3,900.4,3247.3,1589c0,502.7-175.1,643.1-1118.7,2011C2066.6,3689.4,1934.2,3689.4,1872.3,3600z M2000.4,2108.5
	c286.9,0,519.5-232.6,519.5-519.5s-232.6-519.5-519.5-519.5s-519.5,232.6-519.5,519.5S1713.5,2108.5,2000.4,2108.5z"/>
<path class="st1" d="M3047.4,1598.1c9.7,561.2-513,1026.4-1059.4,1026c-665.1-0.5-1140.8-569-962.4-1151.8
	c156.5-511.1,427.8-944.8,962.4-944.8S3038.2,1063.7,3047.4,1598.1z"/>
<path class="st1" d="M935.3,1551.4c-0.3,86.7,7.9,173.1,24.5,258.2c0.7,3.7,1.5,7.4,2.2,11.1l55.6-53.4l86.8-115.7l-77.9-155.8
	L935.3,1551.4z"/>
<path class="st1" d="M2586.7,2466.1c23.5-13.6,45.2-30,64.6-49c1.5-1.5,3-3,4.4-4.4l-15.6-20l-26.7-51.2l-84.6,49l11.1,64.6
	L2586.7,2466.1z"/>
<image style="overflow:visible;enable-background:new    ;" width="128" height="97" xlink:href="F0868910BBC67820.png"  transform="matrix(2.1791 0 0 2.1791 1348.8959 2308.0779)">
</image>
<path class="st1" d="M1988,527.6c534.6,0,1039,536,1048.3,1070.5c9.7,561.2-501.9,1026.4-1048.3,1026"/>
<polygon class="st1" points="3034,1776.5 3047.4,1685.2 3036.3,1656 2985.1,1711.6 2978.4,1767.3 3019.6,1787.8 "/>
<g id="Ebene_3">
	<path class="st2" d="M1584.2,2248.2L1584.2,2248.2c-29.3,0-58.1-6.2-84.7-18.3l-91.5,241.9c358.9,242.4,830.1,238.7,1185.2-9.1
		l-95.5-241.9c-31.3,18.2-66.9,27.8-103.2,27.7L1584.2,2248.2z"/>
	<path class="st2" d="M2215.9,1899.4c-1-1.1-2.1-2.2-3.2-3.2c-12.8-11.1-32.2-9.7-43.3,3.2c0,0,0,0,0,0l0,0l-64.9,75.2
		c-11.1,12.8-9.7,32.2,3.1,43.3l0,0c12.6,11,31.6,9.7,42.6-2.8c0,0,0,0,0,0l0.3-0.3l9.5-11.6v117.8c0.5,17,14.7,30.3,31.7,29.8
		c16.2-0.5,29.3-13.5,29.8-29.8v-119.6l12.2,13.5c6.1,6.8,14.8,10.7,23.9,10.7c17,0,30.7-13.8,30.7-30.7c0-7.4-2.7-14.5-7.5-20.1
		L2215.9,1899.4z"/>
	<path class="st2" d="M2556.7,1090c12.7-9.4,30.7-6.8,40.2,5.8l449.2,600.9c4.3-39.3,6.5-78.9,6.5-118.5
		c0-592.5-474.1-1072.8-1058.6-1072.8S935.3,985.7,935.3,1578.2c0,33.2,1.6,66,4.4,98.3l449.8-568.1c10.3-12.1,28.5-13.5,40.5-3.1
		c11.4,9.8,13.4,26.6,4.5,38.7l-484.7,612.1c44.6,271,191.2,514.7,409.7,681l90.3-239c-85-74-93.9-202.8-20-287.8
		c38.8-44.5,94.9-70.1,154-70.1h1.3l187.7-496.8c5.9-14.7,22.7-21.8,37.4-15.9c14.3,5.8,21.5,21.7,16.3,36.2l-109.1,288.8
		c58.9-24.3,126.6-11.4,172.4,32.8c36.1-110.2,140.2-184.1,260.4-184.1c22.3,0,44.6,2.6,66.3,7.7l-55.4-140.5
		c-5.5-14.9,2-31.4,16.9-36.9c14.9-5.5,31.4,2,36.9,16.9l74.9,189.6c19.8,11.4,38.1,25.2,54.4,41.1c51.7,50.2,80.7,119.3,80.4,191.4
		c0,23.8-3.1,47.5-9.2,70.4c112.2,11.5,194,111.7,182.5,224c-4.5,44.1-23.3,85.6-53.4,118.2l96.5,244.3
		c206-161.7,345.9-393,393.4-650.5l-483.5-646.7C2541.5,1117.5,2544.1,1099.5,2556.7,1090z M1982.7,1305.4
		c-350.7-2.9-529.8-299.3-538-313.4C1558,796.6,1767.3,677,1993.2,678.5c350.7,2.9,529.9,299.3,538,313.4
		C2417.9,1187.3,2208.6,1306.9,1982.7,1305.4L1982.7,1305.4z"/>
	<path class="st2" d="M2216.7,1509.1l281.1,711.6c15.2-8.8,29.1-19.6,41.5-32c1.9-1.8,3.6-3.8,5.4-5.7l-254.8-645
		C2267,1524.9,2242.3,1515.1,2216.7,1509.1z"/>
	<path class="st2" d="M1665.6,1687.5c-41,41.1-56.5,101.1-40.7,156.9c-13.1-2.6-26.4-4-39.7-4.1l-135.3,357.9
		c14.9,12.9,31.5,23.6,49.4,31.7l218.1-577.3C1698,1660.7,1680.4,1672.5,1665.6,1687.5z"/>
	<g>
		<text transform="matrix(1 0 0 1 1710.5927 2150.6858)" class="st2 st3 st4 st5">U</text>
		<text transform="matrix(1 0 0 1 1805.3593 2150.6858)" class="st2 st3 st4">pload</text>
	</g>
</g>
<g id="Ebene_5">
	<path class="st6" d="M2384.8,990.8l0.2-0.3h-0.4c-14.8-20.3-156.7-205.9-401.8-200c-240,5.8-372.3,190.4-386.4,210.9h-0.2v0.3h0.2
		c13.6,19.2,155.8,212.1,402,206c239-5.9,371.1-194.1,386.2-216.5h0.4L2384.8,990.8z M1990.6,1141.5c-79.5,0-144.9-63-152.4-143.5
		h-0.4c-0.2-3.2-0.3-6.4-0.3-9.6c0-85.5,68.6-154.8,153.2-154.8c84.6,0,153.3,69.3,153.3,154.8c0,1.8,0,3.6-0.1,5.4h-0.3
		C2137.7,1076.4,2071.5,1141.5,1990.6,1141.5z"/>
</g>
<g id="Ebene_8">
	
		<ellipse transform="matrix(0.7071 -0.7071 0.7071 0.7071 -117.4598 1697.4501)" class="st6" cx="1990.3" cy="990.5" rx="164.7" ry="164.7"/>
</g>
<g id="Ebene_9">
	<text transform="matrix(1 0 0 1 1766.9823 1117.8875)" class="st7 st8 st9">EU</text>
	<text transform="matrix(1 0 0 1 1766.9823 1117.8875)" class="st10 st8 st9">EU</text>
</g>
</svg>
