<?xml version="1.0" encoding="utf-8"?>
<!-- Svg Vector Icons : http://www.onlinewebfonts.com/icon -->
<!DOCTYPE svg PUBLIC "-//W3C//DTD SVG 1.1//EN" "http://www.w3.org/Graphics/SVG/1.1/DTD/svg11.dtd">
<svg version="1.1" xmlns="http://www.w3.org/2000/svg" xmlns:xlink="http://www.w3.org/1999/xlink" x="0px" y="0px" viewBox="0 0 1000 1000" enable-background="new 0 0 1000 1000" xml:space="preserve" fill="currentColor">
<metadata> Svg Vector Icons : http://www.onlinewebfonts.com/icon </metadata>
<g><path d="M575.4,570.7c0,38.3,31.1,69.4,69.4,69.4s69.4-31.1,69.4-69.4c0-38.3-31.1-69.4-69.4-69.4S575.4,532.4,575.4,570.7z"/><path d="M287.4,570.7c0,38.3,31.1,69.4,69.4,69.4c38.3,0,69.4-31.1,69.4-69.4c0-38.3-31.1-69.4-69.4-69.4C318.4,501.3,287.4,532.4,287.4,570.7z"/><path d="M990,489.1c0-60.4-48.4-109.5-108-109.5c-28.4,0-53.9,10.9-73.3,29c-72.4-51.1-171.1-84-280.8-88.8l50.8-169.6l151.9,30.3c0.4,53.9,43.9,97.5,97.1,97.5c53.7,0,97.1-44.1,97.1-98.4S881.3,81,827.6,81c-40.6,0-75.3,25.3-89.9,61.1L551.8,105l-64.2,214.3l-15.5,0.4c-109.8,4.8-208.4,38-280.8,88.8c-19.2-18.1-45-29-73.3-29c-59.6,0-108,49.1-108,109.5c0,42.8,24,79.6,59.1,97.8c-1.7,10.7-2.6,21.4-2.6,32.3C67,784.6,260.9,919,500.1,919c239.2,0,433.2-134.4,433.2-300c0-10.9-0.9-21.6-2.4-32.3C966,568.5,990,531.6,990,489.1z M827.6,120.1c32.3,0,58.5,26.6,58.5,59.4c0,32.7-26.2,59.4-58.5,59.4s-58.5-26.6-58.5-59.4C769.2,146.7,795.4,120.1,827.6,120.1z M48.8,489.1c0-38.8,31.2-70.3,69.4-70.3c15.7,0,30.3,5.5,41.9,14.4c-37.8,33.2-65.7,72-80.7,114.3C61.1,534.7,48.8,513.3,48.8,489.1z M784.7,798.7c-75.5,52.2-176.5,81-284.6,81c-108,0-209-28.8-284.6-81c-70.9-49.1-110-113-110-179.8c0-7,0.4-14.2,1.3-21.2c1.5-13.1,4.8-26,9.4-38.6c12.2-34,34.9-66.1,67-94.7c9.6-8.5,20.1-16.8,31.4-24.7c0.2-0.2,0.7-0.4,0.9-0.7c75.5-52.2,176.5-81,284.6-81c108,0,209,28.8,284.6,81c0.2,0.2,0.7,0.4,0.9,0.7c11.3,7.9,21.8,16.1,31.4,24.7c32.1,28.6,54.8,60.7,67,94.7c4.6,12.7,7.6,25.5,9.4,38.6c0.9,7,1.3,14,1.3,21.2C894.6,685.7,855.6,749.6,784.7,798.7z M920.8,547.4c-15.1-42.3-43-81.2-80.7-114.3c11.6-8.9,26.2-14.4,41.9-14.4c38.2,0,69.4,31.6,69.4,70.3C951.4,513.3,939.2,534.7,920.8,547.4z"/><path d="M640.9,722.4c-0.4,0.4-52.8,52.8-140.7,53.2c-89.2-0.4-140.5-52.8-141-53.2l-27.5,27.1c2.6,2.6,64.6,64.4,168.5,64.8c103.9-0.4,165.6-62.2,168.2-64.8L640.9,722.4z"/></g>
</svg>